<svg xmlns="http://www.w3.org/2000/svg" width="512" height="512" viewBox="0 0 512 512">
<g>
<path d="M 215.30 398.36 C210.86,400.64 206.09,400.41 200.92,397.68 C193.30,393.65 192.55,391.29 192.17,370.25 L 191.84 352.00 L 181.46 352.00 C168.97,352.00 162.53,349.97 155.59,343.87 C149.93,338.89 146.55,333.19 145.10,326.20 C143.34,317.74 143.62,207.01 145.41,200.28 C147.94,190.79 154.68,182.89 163.88,178.64 L 168.50 176.50 L 424.50 176.50 L 429.12 178.64 C435.85,181.75 441.50,187.32 444.96,194.24 L 448.00 200.32 L 448.00 327.68 L 444.94 333.81 C441.22,341.25 434.74,347.20 427.36,349.97 C422.06,351.95 419.91,352.00 342.78,352.00 L 263.63 352.00 L 241.06 374.36 C228.65,386.65 217.06,397.45 215.30,398.36 ZM 303.00 478.44 C297.42,479.76 284.04,479.96 208.00,479.90 C205.27,479.90 202.62,479.90 200.05,479.90 C125.39,479.84 115.14,479.83 106.39,476.20 C104.70,475.49 103.06,474.65 101.02,473.65 C87.05,466.76 77.05,456.64 70.39,442.61 C69.61,440.97 68.93,439.62 68.32,438.24 C63.93,428.19 63.95,416.21 64.20,272.33 C64.21,265.65 64.22,258.69 64.23,251.43 C64.50,91.78 64.59,84.26 66.37,79.00 C75.36,52.38 95.62,35.50 122.15,32.52 L 127.80 31.88 L 128.24 52.69 C128.63,70.87 128.96,74.26 130.86,79.50 C136.42,94.81 149.07,106.44 164.53,110.47 C173.37,112.77 245.19,112.72 253.07,110.41 C269.14,105.69 282.35,92.27 286.46,76.48 C287.59,72.15 288.00,65.41 288.00,51.19 L 288.00 31.80 L 294.25 32.47 C303.32,33.43 310.46,35.64 319.25,40.20 C333.84,47.77 346.54,64.38 350.44,81.00 C351.62,86.01 351.97,93.96 351.99,115.72 L 352.00 143.93 L 258.25 144.23 C170.41,144.51 164.16,144.65 159.04,146.37 C135.82,154.17 121.36,168.80 114.32,191.60 C112.64,197.06 112.50,202.51 112.50,264.00 C112.50,325.66 112.63,330.93 114.33,336.44 C120.54,356.54 134.35,371.86 152.98,379.28 L 159.47 381.87 L 160.74 390.05 C163.81,409.83 177.01,424.95 195.77,430.14 C203.98,432.42 213.85,432.52 221.07,430.41 C231.49,427.35 236.80,423.35 257.05,403.33 L 276.61 384.00 L 352.16 384.00 L 351.80 406.75 C351.46,427.32 351.21,430.12 349.15,436.00 C341.80,456.90 323.67,473.59 303.00,478.44 ZM 248.08 77.73 C244.72,79.99 244.50,80.00 208.60,79.99 L 172.50 79.98 L 168.24 77.43 C161.16,73.18 160.55,71.13 160.17,50.25 L 159.84 32.00 L 256.00 32.00 L 256.00 50.35 C256.00,67.78 255.89,68.87 253.73,72.08 C252.48,73.93 249.93,76.48 248.08,77.73 ZM 287.00 285.97 C297.26,290.74 310.27,286.59 316.47,276.55 C319.15,272.22 319.50,270.78 319.50,264.00 C319.50,257.22 319.15,255.78 316.47,251.45 C314.61,248.43 311.59,245.40 308.60,243.55 C304.37,240.94 302.82,240.56 296.62,240.59 C288.69,240.63 283.46,242.71 278.86,247.66 C274.30,252.57 272.63,256.96 272.64,264.00 C272.64,274.23 277.40,281.51 287.00,285.97 ZM 367.00 285.97 C377.26,290.74 390.27,286.59 396.47,276.55 C399.15,272.22 399.50,270.78 399.50,264.00 C399.50,257.22 399.15,255.78 396.47,251.45 C394.61,248.43 391.59,245.40 388.60,243.55 C384.37,240.94 382.82,240.56 376.62,240.59 C368.69,240.63 363.46,242.71 358.86,247.66 C354.30,252.57 352.63,256.96 352.64,264.00 C352.64,274.23 357.40,281.51 367.00,285.97 ZM 207.00 285.97 C217.26,290.74 230.27,286.59 236.47,276.55 C239.15,272.22 239.50,270.78 239.50,264.00 C239.50,257.22 239.15,255.78 236.47,251.45 C234.61,248.43 231.59,245.40 228.60,243.55 C224.37,240.94 222.82,240.56 216.62,240.59 C208.69,240.63 203.46,242.71 198.86,247.66 C194.30,252.57 192.63,256.96 192.64,264.00 C192.64,274.23 197.40,281.51 207.00,285.97 Z" fill="rgb(0,0,0)"/>
<path d="M 0.00 256.00 L 0.00 0.00 L 256.00 0.00 L 512.00 0.00 L 512.00 256.00 L 512.00 512.00 L 256.00 512.00 L 0.00 512.00 L 0.00 256.00 ZM 303.00 478.44 C323.67,473.59 341.80,456.90 349.15,436.00 C351.21,430.12 351.46,427.32 351.80,406.75 L 352.16 384.00 L 314.38 384.00 L 276.61 384.00 L 257.05 403.33 C236.80,423.35 231.49,427.35 221.07,430.41 C213.85,432.52 203.98,432.42 195.77,430.14 C177.01,424.95 163.81,409.83 160.74,390.05 L 159.47 381.87 L 152.98 379.28 C134.35,371.86 120.54,356.54 114.33,336.44 C112.63,330.93 112.50,325.66 112.50,264.00 C112.50,202.51 112.64,197.06 114.32,191.60 C121.36,168.80 135.82,154.17 159.04,146.37 C164.16,144.65 170.41,144.51 258.25,144.23 L 352.00 143.93 L 351.99 115.72 C351.97,93.96 351.62,86.01 350.44,81.00 C346.54,64.38 333.84,47.77 319.25,40.20 C310.46,35.64 303.32,33.43 294.25,32.47 L 288.00 31.80 L 288.00 51.19 C288.00,65.41 287.59,72.15 286.46,76.48 C282.35,92.27 269.14,105.69 253.07,110.41 C245.19,112.72 173.37,112.77 164.53,110.47 C149.07,106.44 136.42,94.81 130.86,79.50 C128.96,74.26 128.63,70.87 128.24,52.69 L 127.80 31.88 L 122.15 32.52 C95.62,35.50 75.36,52.38 66.37,79.00 C64.59,84.26 64.50,91.78 64.23,251.43 C63.92,436.56 63.66,428.44 70.39,442.61 C77.05,456.64 87.05,466.76 101.02,473.65 C113.94,480.01 110.77,479.83 208.00,479.90 C284.04,479.96 297.42,479.76 303.00,478.44 ZM 215.30 398.36 C217.06,397.45 228.65,386.65 241.06,374.36 L 263.63 352.00 L 342.78 352.00 C419.91,352.00 422.06,351.95 427.36,349.97 C434.74,347.20 441.22,341.25 444.94,333.81 L 448.00 327.68 L 448.00 264.00 L 448.00 200.32 L 444.96 194.24 C441.50,187.32 435.85,181.75 429.12,178.64 L 424.50 176.50 L 296.50 176.50 L 168.50 176.50 L 163.88 178.64 C154.68,182.89 147.94,190.79 145.41,200.28 C143.62,207.01 143.34,317.74 145.10,326.20 C146.55,333.19 149.93,338.89 155.59,343.87 C162.53,349.97 168.97,352.00 181.46,352.00 L 191.84 352.00 L 192.17 370.25 C192.55,391.29 193.30,393.65 200.92,397.68 C206.09,400.41 210.86,400.64 215.30,398.36 ZM 248.08 77.73 C249.93,76.48 252.48,73.93 253.73,72.08 C255.89,68.87 256.00,67.78 256.00,50.35 L 256.00 32.00 L 207.92 32.00 L 159.84 32.00 L 160.17 50.25 C160.55,71.13 161.16,73.18 168.24,77.43 L 172.50 79.98 L 208.60 79.99 C244.50,80.00 244.72,79.99 248.08,77.73 ZM 207.00 285.97 C197.40,281.51 192.64,274.23 192.64,264.00 C192.63,256.96 194.30,252.57 198.86,247.66 C203.46,242.71 208.69,240.63 216.62,240.59 C222.82,240.56 224.37,240.94 228.60,243.55 C231.59,245.40 234.61,248.43 236.47,251.45 C239.15,255.78 239.50,257.22 239.50,264.00 C239.50,270.78 239.15,272.22 236.47,276.55 C230.27,286.59 217.26,290.74 207.00,285.97 ZM 287.00 285.97 C277.40,281.51 272.64,274.23 272.64,264.00 C272.63,256.96 274.30,252.57 278.86,247.66 C283.46,242.71 288.69,240.63 296.62,240.59 C302.82,240.56 304.37,240.94 308.60,243.55 C311.59,245.40 314.61,248.43 316.47,251.45 C319.15,255.78 319.50,257.22 319.50,264.00 C319.50,270.78 319.15,272.22 316.47,276.55 C310.27,286.59 297.26,290.74 287.00,285.97 ZM 367.00 285.97 C357.40,281.51 352.64,274.23 352.64,264.00 C352.63,256.96 354.30,252.57 358.86,247.66 C363.46,242.71 368.69,240.63 376.62,240.59 C382.82,240.56 384.37,240.94 388.60,243.55 C391.59,245.40 394.61,248.43 396.47,251.45 C399.15,255.78 399.50,257.22 399.50,264.00 C399.50,270.78 399.15,272.22 396.47,276.55 C390.27,286.59 377.26,290.74 367.00,285.97 Z" fill="rgb(254,254,254)"/>
</g>
</svg>